<svg
  version="1.1"
  id="Layer_1"
  xmlns="http://www.w3.org/2000/svg"
  xmlns:xlink="http://www.w3.org/1999/xlink"
  x="0px"
  y="0px"
  viewBox="0 0 1656 278"
  width="225"
  height="36"
  xml:space="preserve"
  color="currentcolor"
>
  <path
    class="logo-mark"
    d="M201.6,40.8l110.8,111.4l-100.5,0L100.7,40.8H201.6z M62.8,201L0,263.6l100.2,0L212,152.2h-32.9 C135.1,152.2,93.7,169.8,62.8,201z"
    fill="#FF555F"
  ></path>
  <g class="logo-text-group">
    <path
      class="st0"
      fill="currentcolor"
      d="M605,154.9c-21.3,0.1-38.7-7.1-52.3-21.4c-13.6-14.3-20.4-33-20.4-55.9s6.9-41.6,20.8-56 C567,7.2,584.4,0,605.2,0s37.2,5.4,49.3,16.2c12,10.9,18.7,26,19.9,45.3l-19.7,1.2c-0.8-13.9-5.5-24.9-14.1-33.1 c-8.6-8.2-20.5-12.2-35.6-12.1c-15.1,0-27.5,5.4-37.3,16.3c-9.6,10.9-14.3,25.5-14.3,43.8s4.9,32.9,14.8,43.7 c9.9,10.8,22.3,16.2,37.2,16.2c15,0,26.8-3.9,35.6-11.8c8.7-7.9,13.7-18.3,14.9-31.4h-45.6V78.3h64.2V152H656v-26.5 c-3.2,9.2-9.4,16.4-18.9,21.6C627.7,152.4,617,155,605,154.9z M407.3,75.4h-39.3V19.6h39.3c12.3,0.1,21.6,2.5,27.6,7.4 c6,4.9,9,11.7,9,20.6C443.9,66.1,431.7,75.4,407.3,75.4z M367.9,152V91.9h42.2c18.3-0.1,28,9.1,29,27.6c1.2,17.6,3.2,28.4,6.2,32.5 h21.3c-2.4-2.5-4-6.1-4.7-10.5c-0.8-4.5-1.7-12.9-2.9-25.2c-1.4-18-10.8-28.8-28.3-32.3c9.8-1.1,17.9-4.8,24.3-11.2 c6.4-6.4,9.6-15,9.6-25.9c0-13.8-4.7-24.6-14.2-32.4c-9.5-7.8-23.5-11.7-42-11.7h-60.6V152H367.9z M510.2,2.8h-20.6V152h20.6V2.8z M702.3,152h20.6V83.5h85.7V152h20.7V2.8h-20.7v64h-85.7v-64h-20.6V152z M923.3,152H903V19.8h-54.3v-17h129.8v17h-55.2V152z M1018.3,152V96.4h33.9c18.5,0,32.8-4.2,42.9-12.5c10.1-8.4,15.2-19.9,15.2-34.6c0-14.7-5.1-26.1-15.3-34.2 c-10.2-8.2-24.4-12.3-42.8-12.3H998V152H1018.3z M1051.8,79.5h-33.4V19.6h33.4c25.8,0,38.6,10,38.6,30S1077.5,79.5,1051.8,79.5z M1249.9,77.4c0-18.4-4.8-32.9-14.4-43.7c-9.6-10.8-22.5-16.2-38.5-16.2c-16,0-28.9,5.4-38.5,16.3c-9.6,10.9-14.5,25.4-14.5,43.6 c0,18.2,4.8,32.7,14.5,43.6c9.6,10.9,22.5,16.3,38.6,16.3s29-5.4,38.5-16.2C1245.2,110.3,1250,95.7,1249.9,77.4z M1250.6,21.5 c13.8,14.3,20.7,33,20.7,55.9c0,22.9-6.9,41.5-20.8,55.9c-13.9,14.3-31.7,21.5-53.4,21.5s-39.5-7.2-53.3-21.5 c-13.8-14.3-20.7-33-20.7-55.9c0-22.9,6.9-41.5,20.7-55.9C1157.5,7.2,1175.3,0,1197.2,0C1219,0,1236.8,7.2,1250.6,21.5z M1313.8,2.8 h-20.6V152h20.6V2.8z M1445.8,2.8h19.2V152h-16.4l-86.7-119.8V152h-19.2V2.8h21.3l81.8,114.2V2.8z M1538.6,152h20.4V19.8h55.2v-17 h-129.8v17h54.3V152z M1641.3,2.7c-8,0-14.6,6.2-14.6,14.7c0,8.5,6.6,14.7,14.6,14.7c8,0,14.7-6.2,14.7-14.7 C1656,8.9,1649.4,2.7,1641.3,2.7z M1641.3,29.6c-6.7,0-12-5.1-12-12.2c0-7.1,5.3-12.2,12-12.2c6.7,0,12,5.1,12,12.2 S1648,29.6,1641.3,29.6L1641.3,29.6z M1644.6,18.1c1.9-0.2,3.4-1.6,3.4-3.9c0-2.8-1.9-4.7-5.8-4.7h-6.9v15.3h3v-5.7h3.5 c1.8,0,2.6,0.8,2.6,2.5c0.2,1.7,0.3,2.8,0.7,3.2h3.2c-0.6-0.6-0.7-1.3-0.7-3.6C1647.4,19.5,1646.4,18.4,1644.6,18.1L1644.6,18.1z M1641.8,16.8h-3.4v-4.9h3.4c2.3,0,3.3,0.9,3.3,2.4C1645,16.1,1644,16.8,1641.8,16.8z"
    ></path>
    <path
      class="st2"
      fill="currentcolor"
      d="M380.5,237.3v17.1c0,2,1,3,2.9,3c1.2,0,2.3-0.3,3.3-0.9v3.9c-1.5,1.5-3.3,2.3-5.5,2.3c-2.2,0-3.9-0.7-5.2-2 c-1.3-1.4-2-3.2-2.3-5.5c-1,2.3-2.8,4.1-5.4,5.6c-2.5,1.4-5.5,2.2-8.8,2.2c-3.3,0-6.1-0.9-8.3-2.8c-2.2-1.9-3.3-4.5-3.3-7.8 c0-3.3,1.3-5.9,3.9-7.7c2.6-1.8,6.4-3.2,11.4-4.2l10.3-2.1v-1.5c0-2.6-0.7-4.7-2.2-6.2c-1.5-1.5-3.5-2.3-6.2-2.3 c-5.1,0-8.3,2.6-9.6,7.7l-6.5-0.9c0.8-3.7,2.5-6.7,5.4-9c2.8-2.3,6.5-3.4,11.1-3.4c4.6,0,8.2,1.2,10.9,3.7 C379.2,228.9,380.5,232.5,380.5,237.3z M373.6,244.9v-1.8l-8.5,1.8c-3.5,0.8-6,1.6-7.5,2.5c-1.5,0.9-2.3,2.3-2.3,4.3 c0,1.9,0.6,3.3,1.7,4.4c1.1,1.1,2.7,1.6,4.8,1.6c3.4,0,6.3-1.2,8.5-3.5C372.5,251.7,373.6,248.7,373.6,244.9z"
    ></path>
    <path
      class="st2"
      fill="currentcolor"
      d="M698.6,242.9c0-6.1,1.8-11,5.4-14.6c3.6-3.7,8.2-5.5,13.7-5.5s9.9,1.6,13,4.7c3.1,3.2,4.9,7.1,5.3,12l-6.3,0.4 c-0.3-3.4-1.4-6.2-3.5-8.2c-2-2-4.8-3-8.3-3c-3.5,0-6.4,1.3-8.6,3.9c-2.2,2.6-3.3,6.1-3.3,10.4c0,4.4,1.1,7.8,3.3,10.4 c2.2,2.6,5.1,3.8,8.6,3.9c3.5,0,6.3-1,8.3-3.1c2-2.1,3.2-4.9,3.5-8.4l6.3,0.6c-0.4,4.9-2.2,8.9-5.3,12s-7.4,4.7-13,4.7 s-10.1-1.8-13.8-5.5C700.4,253.8,698.6,248.9,698.6,242.9z"
    ></path>
    <path
      class="st2"
      fill="currentcolor"
      d="M774.6,228.4c3.7,3.8,5.5,8.6,5.5,14.5c0,5.8-1.8,10.6-5.5,14.4c-3.7,3.7-8.3,5.6-14,5.6s-10.3-1.9-13.9-5.6 s-5.4-8.6-5.4-14.5c0-5.9,1.8-10.7,5.5-14.4c3.7-3.8,8.3-5.7,13.9-5.7S770.9,224.6,774.6,228.4z M751.8,232.4 c-2.1,2.6-3.1,6.1-3.1,10.5c0,4.4,1,7.9,3.1,10.5c2.1,2.6,5,3.9,8.8,4c3.8,0,6.7-1.3,8.9-4s3.2-6.2,3.2-10.6c0-4.3-1.1-7.8-3.2-10.4 c-2.1-2.6-5.1-4-8.9-4C756.8,228.4,753.9,229.7,751.8,232.4z"
    ></path>
    <path
      class="st2"
      fill="currentcolor"
      d="M845.5,238.2v23.6h-7.2v-23c0-6.9-2.8-10.4-8.5-10.3c-2.8,0-5.1,1-7,3.1s-2.8,4.9-2.8,8.3v21.9h-7.2v-23 c0-6.9-2.8-10.4-8.5-10.3c-2.7,0-5,1-6.9,3.1c-1.9,2.1-2.8,4.9-2.8,8.3v21.9h-7.2v-38.1h7.2v6.8c0.9-2.4,2.5-4.3,4.6-5.7 c2.2-1.4,4.6-2.1,7.5-2.2c6.4,0,10.6,2.8,12.4,8.3c1-2.4,2.7-4.4,5-6c2.3-1.5,4.9-2.3,7.8-2.3c4.7,0,8.1,1.4,10.2,4.3 C844.4,229.8,845.5,233.6,845.5,238.2z"
    ></path>
    <path
      class="st2"
      fill="currentcolor"
      d="M862.2,276.5H855v-52.7h7.2v8c0.9-2.6,2.5-4.7,4.9-6.4c2.4-1.7,5.3-2.6,8.7-2.6c5.5,0,9.8,1.9,12.8,5.7 c3.1,3.8,4.6,8.6,4.6,14.5c0,5.8-1.5,10.6-4.6,14.4c-3.1,3.7-7.3,5.6-12.8,5.7c-3.3,0-6.2-0.9-8.7-2.6s-4.1-3.8-5-6.4V276.5z M862.1,241.7v2.2c0,4.1,1.1,7.3,3.4,9.7c2.3,2.4,5.2,3.6,8.8,3.6s6.4-1.3,8.5-3.8c2-2.5,3-6,3-10.4c0-4.4-1-7.9-3-10.5 c-2-2.6-4.8-3.8-8.5-3.8s-6.6,1.2-8.8,3.5C863.2,234.5,862.1,237.7,862.1,241.7z"
    ></path>
    <path
      class="st2"
      fill="currentcolor"
      d="M931.4,237.3v17.1c0,2,1,3,2.9,3c1.2,0,2.3-0.3,3.3-0.9v3.9c-1.5,1.5-3.3,2.3-5.5,2.3c-2.2,0-3.9-0.7-5.2-2 c-1.3-1.4-2-3.2-2.3-5.5c-1,2.3-2.8,4.1-5.4,5.6c-2.5,1.4-5.5,2.2-8.8,2.2c-3.3,0-6.1-0.9-8.3-2.8c-2.2-1.9-3.3-4.5-3.3-7.8 c0-3.3,1.3-5.9,3.9-7.7c2.6-1.8,6.4-3.2,11.4-4.2l10.3-2.1v-1.5c0-2.6-0.7-4.7-2.2-6.2c-1.5-1.5-3.5-2.3-6.2-2.3 c-5.1,0-8.3,2.6-9.6,7.7l-6.5-0.9c0.8-3.7,2.5-6.7,5.4-9c2.8-2.3,6.5-3.4,11.1-3.4c4.6,0,8.2,1.2,10.9,3.7 C930.1,228.9,931.4,232.5,931.4,237.3z M924.5,244.9v-1.8l-8.5,1.8c-3.5,0.8-6,1.6-7.5,2.5s-2.3,2.3-2.3,4.3c0,1.9,0.6,3.3,1.7,4.4 c1.1,1.1,2.7,1.6,4.8,1.6c3.4,0,6.3-1.2,8.5-3.5C923.4,251.7,924.5,248.7,924.5,244.9z"
    ></path>
    <path
      class="st2"
      fill="currentcolor"
      d="M950.6,240v21.9h-7.2v-38.1h7.2v6.8c0.9-2.3,2.5-4.2,4.8-5.7c2.3-1.4,4.9-2.2,7.8-2.2c4.8,0,8.3,1.4,10.5,4.3 c2.3,2.8,3.4,6.6,3.4,11.3v23.6h-7.2v-23c0-3.3-0.8-5.8-2.3-7.6c-1.5-1.8-3.7-2.7-6.7-2.7s-5.4,1-7.4,3.1 C951.6,233.8,950.6,236.6,950.6,240z"
    ></path>
    <path
      class="st2"
      fill="currentcolor"
      d="M998.5,276.5h-7.1l6.2-14.7l-16-38h7.6l12.1,29.3h0.3l11.7-29.3h7.1L998.5,276.5z"
    ></path>
    <path
      class="st2"
      fill="currentcolor"
      d="M426.2,254.2c5.7,0,10.5-5.1,10.5-11.5s-4.8-11.5-10.5-11.5c-5.7,0-10.4,5.1-10.4,11.5S420.5,254.2,426.2,254.2 z M417,263.3c1.7,3.4,5.1,5.7,8.9,5.7c5.6,0,10.2-4.9,10.2-11v-0.4l-0.2-0.1c-3.1,3.1-7.2,5.1-11.7,5.1c-9.7,0-17.5-9-17.5-19.9 s7.8-19.9,17.5-19.9c4.5,0,8.5,1.9,11.7,5.2l0.2-0.1v-4h9V258c0,10.8-8,19.5-18.8,19.5c-7.3,0-13.5-3.9-16.9-9.8L417,263.3 L417,263.3z"
    ></path>
    <path
      class="st2"
      fill="currentcolor"
      d="M477.7,237.5l0.1-0.2c-2-3.7-5.6-6.2-9.7-6.2s-7.6,2.3-9.8,6.2l0.1,0.2H477.7z M476.6,250.4l6.3,6.2 c-3.6,3.7-8.7,6-14.3,6c-11.1,0-20-8.9-20-19.9c0-11,8.6-19.9,19.4-19.9c10.8,0,19.3,8.9,19.3,19.9c0,1.8-0.2,2.3-0.2,2.3h-29.6 c0,4.2,4.9,9.1,10.6,9.1C471.5,254.1,474.4,252.6,476.6,250.4"
    ></path>
    <path
      class="st2"
      fill="currentcolor"
      d="M500.2,242.7v18.9h-9v-37.7h9v4.6l0.2,0.1c3.1-3.8,7.2-5.7,11.4-5.7c16.1,0,16.5,14.7,16.5,19.2v19.6h-9v-18.9 c0-4.5-0.1-11.5-9.4-11.5C504.6,231.2,500.2,236.3,500.2,242.7"
    ></path>
    <path
      class="st2"
      fill="currentcolor"
      d="M551.7,231.3c-5.8,0-10.5,5.1-10.5,11.4s4.7,11.5,10.5,11.5s10.4-5.1,10.4-11.5S557.4,231.3,551.7,231.3z M553.7,262.6c-4.6,0-8.5-1.9-11.8-5.2l-0.2,0.1v19h-9v-52.7h9v4l0.2,0.1c3.2-3.1,7.2-5.1,11.8-5.1c9.7,0,17.5,8.9,17.5,19.9 C571.1,253.8,563.3,262.6,553.7,262.6z"
    ></path>
    <path
      class="st2"
      fill="currentcolor"
      d="M593.6,254.1c5.7,0,10.4-5,10.4-11.4c0-6.4-4.7-11.5-10.4-11.5c-5.7,0-10.4,5.1-10.4,11.5 C583.2,249.1,588,254.1,593.6,254.1z M591.7,222.8c4.5,0,8.5,1.9,11.7,5.2l0.2-0.1v-4h9v37.7h-9v-3.9l-0.2-0.2 c-3.1,3.1-7.2,5.1-11.7,5.1c-9.7,0-17.5-8.9-17.5-19.9C574.2,231.7,582,222.8,591.7,222.8"
    ></path>
    <path
      class="st2"
      fill="currentcolor"
      d="M650.3,256.7c-3.6,3.7-8.7,6-14.3,6c-11.1,0-20-8.9-20-19.9c0-11,8.9-19.9,20-19.9c5.6,0,10.6,2.3,14.3,6 l-6.4,6c-2-2.2-4.8-3.5-7.9-3.5c-6.1,0-11,5.2-11,11.5s4.8,11.4,11,11.4c3.1,0,6-1.4,8.1-3.5L650.3,256.7L650.3,256.7z"
    ></path>
    <path
      class="st2"
      fill="currentcolor"
      d="M668.4,232.5v29h-9v-29h-6.3v-8.7h6.3v-16.9h9v16.9h6.3v8.7H668.4z"
    ></path>
  </g>
</svg>
